<svg width="108" height="20" viewBox="0 0 108 20" fill="none" xmlns="http://www.w3.org/2000/svg">
<path d="M8.09375 17L8.02344 15.4414C7.77344 15.707 7.51172 15.9531 7.23828 16.1797C6.96484 16.3984 6.66406 16.5898 6.33594 16.7539C6.00781 16.918 5.64844 17.043 5.25781 17.1289C4.875 17.2227 4.45312 17.2695 3.99219 17.2695C3.38281 17.2695 2.84766 17.1797 2.38672 17C1.92578 16.8203 1.53906 16.5703 1.22656 16.25C0.914062 15.9297 0.675781 15.543 0.511719 15.0898C0.355469 14.6367 0.277344 14.1367 0.277344 13.5898C0.277344 13.0273 0.394531 12.5078 0.628906 12.0312C0.871094 11.5547 1.23438 11.1445 1.71875 10.8008C2.21094 10.457 2.82031 10.1875 3.54688 9.99219C4.28125 9.79688 5.14062 9.69922 6.125 9.69922H7.68359V8.98438C7.68359 8.67969 7.64062 8.40625 7.55469 8.16406C7.46875 7.91406 7.32812 7.70312 7.13281 7.53125C6.94531 7.35938 6.69922 7.22656 6.39453 7.13281C6.08984 7.03906 5.71484 6.99219 5.26953 6.99219C4.56641 6.99219 3.87109 7.07422 3.18359 7.23828C2.50391 7.39453 1.84375 7.61719 1.20312 7.90625V5.62109C1.77344 5.39453 2.42969 5.20703 3.17188 5.05859C3.92188 4.91016 4.69922 4.83594 5.50391 4.83594C6.38672 4.83594 7.14453 4.92187 7.77734 5.09375C8.41016 5.25781 8.92969 5.50781 9.33594 5.84375C9.75 6.17969 10.0547 6.60156 10.25 7.10938C10.4453 7.60938 10.543 8.19531 10.543 8.86719V17H8.09375ZM7.68359 11.7383H5.9375C5.45312 11.7383 5.04297 11.7852 4.70703 11.8789C4.37109 11.9727 4.09766 12.1016 3.88672 12.2656C3.67578 12.4297 3.51953 12.6211 3.41797 12.8398C3.32422 13.0508 3.27734 13.2773 3.27734 13.5195C3.27734 14.0039 3.43359 14.375 3.74609 14.6328C4.05859 14.8828 4.48438 15.0078 5.02344 15.0078C5.42188 15.0078 5.83594 14.8633 6.26562 14.5742C6.69531 14.2852 7.16797 13.8711 7.68359 13.332V11.7383ZM19.5402 5.09375V12.8516C19.5402 13.5 19.6613 13.9922 19.9034 14.3281C20.1456 14.6562 20.5128 14.8203 21.005 14.8203C21.4816 14.8203 21.9386 14.625 22.3761 14.2344C22.8214 13.8359 23.2902 13.3008 23.7823 12.6289V5.09375H26.6417V17H24.1691L24.0988 15.2422C23.8488 15.5469 23.5948 15.8242 23.337 16.0742C23.0792 16.3242 22.798 16.5391 22.4933 16.7188C22.1964 16.8906 21.8683 17.0234 21.5089 17.1172C21.1573 17.2188 20.7667 17.2695 20.337 17.2695C19.7277 17.2695 19.1925 17.1719 18.7316 16.9766C18.2784 16.7734 17.8995 16.4883 17.5948 16.1211C17.2902 15.7539 17.0597 15.3164 16.9034 14.8086C16.755 14.293 16.6808 13.7188 16.6808 13.0859V5.09375H19.5402ZM43.467 2.86719C43.1233 2.75781 42.7131 2.66797 42.2366 2.59766C41.7678 2.51953 41.2873 2.48047 40.7952 2.48047C40.4592 2.48047 40.1467 2.52734 39.8577 2.62109C39.5686 2.70703 39.3186 2.84766 39.1077 3.04297C38.8967 3.23828 38.7288 3.48828 38.6038 3.79297C38.4866 4.08984 38.428 4.45312 38.428 4.88281V6.80469H43.1038V9.03125H38.428V17H35.5452V9.03125H32.0881V6.80469H35.5452V5C35.5452 4.15625 35.6663 3.43359 35.9084 2.83203C36.1584 2.22266 36.5061 1.72656 36.9514 1.34375C37.4045 0.953125 37.9475 0.667969 38.5803 0.488281C39.2131 0.308594 39.9202 0.21875 40.7014 0.21875C41.217 0.21875 41.7053 0.253906 42.1663 0.324219C42.635 0.386719 43.0686 0.464844 43.467 0.558594V2.86719ZM59.5423 2.86719C59.1986 2.75781 58.7884 2.66797 58.3119 2.59766C57.8431 2.51953 57.3627 2.48047 56.8705 2.48047C56.5345 2.48047 56.222 2.52734 55.933 2.62109C55.6439 2.70703 55.3939 2.84766 55.183 3.04297C54.972 3.23828 54.8041 3.48828 54.6791 3.79297C54.5619 4.08984 54.5033 4.45312 54.5033 4.88281V6.80469H59.1791V9.03125H54.5033V17H51.6205V9.03125H48.1634V6.80469H51.6205V5C51.6205 4.15625 51.7416 3.43359 51.9837 2.83203C52.2337 2.22266 52.5814 1.72656 53.0267 1.34375C53.4798 0.953125 54.0228 0.667969 54.6556 0.488281C55.2884 0.308594 55.9955 0.21875 56.7767 0.21875C57.2923 0.21875 57.7806 0.253906 58.2416 0.324219C58.7103 0.386719 59.1439 0.464844 59.5423 0.558594V2.86719ZM72.395 17L72.3247 15.4414C72.0747 15.707 71.813 15.9531 71.5395 16.1797C71.2661 16.3984 70.9653 16.5898 70.6372 16.7539C70.3091 16.918 69.9497 17.043 69.5591 17.1289C69.1763 17.2227 68.7544 17.2695 68.2934 17.2695C67.6841 17.2695 67.1489 17.1797 66.688 17C66.227 16.8203 65.8403 16.5703 65.5278 16.25C65.2153 15.9297 64.977 15.543 64.813 15.0898C64.6567 14.6367 64.5786 14.1367 64.5786 13.5898C64.5786 13.0273 64.6958 12.5078 64.9302 12.0312C65.1723 11.5547 65.5356 11.1445 66.02 10.8008C66.5122 10.457 67.1216 10.1875 67.8481 9.99219C68.5825 9.79688 69.4419 9.69922 70.4263 9.69922H71.9848V8.98438C71.9848 8.67969 71.9419 8.40625 71.8559 8.16406C71.77 7.91406 71.6294 7.70312 71.4341 7.53125C71.2466 7.35938 71.0005 7.22656 70.6958 7.13281C70.3911 7.03906 70.0161 6.99219 69.5708 6.99219C68.8677 6.99219 68.1723 7.07422 67.4848 7.23828C66.8052 7.39453 66.145 7.61719 65.5044 7.90625V5.62109C66.0747 5.39453 66.7309 5.20703 67.4731 5.05859C68.2231 4.91016 69.0005 4.83594 69.8052 4.83594C70.688 4.83594 71.4458 4.92187 72.0786 5.09375C72.7114 5.25781 73.2309 5.50781 73.6372 5.84375C74.0513 6.17969 74.3559 6.60156 74.5513 7.10938C74.7466 7.60938 74.8442 8.19531 74.8442 8.86719V17H72.395ZM71.9848 11.7383H70.2388C69.7544 11.7383 69.3442 11.7852 69.0083 11.8789C68.6723 11.9727 68.3989 12.1016 68.188 12.2656C67.977 12.4297 67.8208 12.6211 67.7192 12.8398C67.6255 13.0508 67.5786 13.2773 67.5786 13.5195C67.5786 14.0039 67.7348 14.375 68.0473 14.6328C68.3598 14.8828 68.7856 15.0078 69.3247 15.0078C69.7231 15.0078 70.1372 14.8633 70.5669 14.5742C70.9966 14.2852 71.4692 13.8711 71.9848 13.332V11.7383Z" fill="white"/>
<path d="M82.9977 19.5195H80.2203L88.4 0.441406H91.1891L82.9977 19.5195ZM99.5534 3.96875L107.452 10.6133L99.5534 17.2695L97.737 15.418L103.538 10.6367L97.737 5.82031L99.5534 3.96875Z" fill="#2DA44E"/>
</svg>
